# xmcd
#
# Track frame offsets:
#	150
#	4185
#	19201
#	36445
#	46683
#	68854
#	84830
#	106574
#	108213
#	130854
#	149185
#	169456
#	179261
#	201712
#	223961
#	242198
#	262776
#	280709
#	299334
#	318707
#	334450
#	354566
#
# Disc length: 4788 seconds
#
# Revision: 0
# Processed by: cddbd v1.5.1PL0 Copyright (c) Steve Scherf et al.
# Submitted via: EasyCDDAExtractor 8.0.2.1
#
DISCID=5a12b216
DTITLE=Ludacris - Greatest Hits
DYEAR=2005
DGENRE=Hip-Hop
TTITLE0=Skit
TTITLE1=Welcome To Atlanta (Featuring Jermaine Dupri)
TTITLE2=Saturday (Oooh Oooh!)
TTITLE3=Word Of Mouth
TTITLE4=Rollout (My Business)
TTITLE5=Stand Up (Featuring Shawnna)
TTITLE6=Growing Pains (Remix)
TTITLE7=Ho (Skit)
TTITLE8=Area Codes (Featuring Nate Dogg)
TTITLE9=Blow It Out
TTITLE10=Move Bitch
TTITLE11=Word Of Mouf (Freestyle)
TTITLE12=Southern Hospitality
TTITLE13=Phat Rabbit
TTITLE14=Number One Spot
TTITLE15=What's Your Fantasy
TTITLE16=Freaky Thangs (Featuring Twist
TTITLE17=Yeah (Featuring Usher and Lil Jon)
TTITLE18=Keep It On The Hush (Featuring Jazzy Pha)
TTITLE19=Virgo (Featuring Nas and Doug E. Fresh)
TTITLE20=You Don't Have To Call Remix (Featuring Usher)
TTITLE21=Made U Look Remix
EXTD=
EXTT0=
EXTT1=
EXTT2=
EXTT3=
EXTT4=
EXTT5=
EXTT6=
EXTT7=
EXTT8=
EXTT9=
EXTT10=
EXTT11=
EXTT12=
EXTT13=
EXTT14=
EXTT15=
EXTT16=
EXTT17=
EXTT18=
EXTT19=
EXTT20=
EXTT21=
PLAYORDER=
